<svg data-v-fde0c5aa="" xmlns="http://www.w3.org/2000/svg" viewBox="0 0 300 300" class="iconLeft"><!----><defs data-v-fde0c5aa=""><!----></defs><rect data-v-fde0c5aa="" fill="#000000" x="0" y="0" width="300px" height="300px" class="logo-background-square"></rect><defs data-v-fde0c5aa=""><!----></defs><g data-v-fde0c5aa="" id="8f95be6d-65cd-42d6-95d8-539aaed1cbf3" fill="#ffffff" transform="matrix(3.4354987144470215,0,0,3.4354987144470215,115.43421191544643,120.67801941469133)"><path d="M13.87 3.92L11.89 3.92L10.15 12.12L8.50 4.06L5.78 4.06L4.07 12.10L2.45 3.92L0.36 3.92L2.79 13.58L5.36 13.58L7.10 5.54L8.75 13.58L11.31 13.58ZM18.79 13.58L20.68 13.58C20.57 12.75 20.54 12.25 20.54 11.69L20.54 9.28C20.54 8.88 20.52 8.48 20.50 8.13C20.38 6.85 19.60 5.94 17.51 5.94C15.74 5.94 14.38 6.89 14.32 8.57L16.20 8.55C16.25 7.74 16.67 7.29 17.44 7.29C18.20 7.29 18.54 7.67 18.59 8.19C18.62 8.44 18.62 8.67 18.62 8.89L18.62 9.04L18.14 9.04C15.44 9.04 14.04 9.97 14.04 11.61C14.04 13.02 15.15 13.78 16.44 13.78C17.14 13.78 17.77 13.64 18.28 13.29L18.65 12.49ZM17.18 12.42C16.49 12.42 16.04 12.11 16.04 11.45C16.04 10.47 17.08 10.12 18.62 10.23L18.62 10.84C18.62 11.87 17.96 12.42 17.18 12.42ZM24.21 3.29L22.27 3.29L22.27 11.19C22.27 11.68 22.27 12.03 22.30 12.36C22.34 13.33 22.95 13.68 23.90 13.68C24.33 13.68 24.71 13.66 25.09 13.62L25.09 12.29C24.43 12.33 24.26 12.21 24.22 11.83C24.21 11.63 24.21 11.44 24.21 11.14ZM28.11 3.29L26.18 3.29L26.18 11.19C26.18 11.68 26.18 12.03 26.21 12.36C26.25 13.33 26.85 13.68 27.80 13.68C28.24 13.68 28.62 13.66 28.99 13.62L28.99 12.29C28.34 12.33 28.17 12.21 28.13 11.83C28.11 11.63 28.11 11.44 28.11 11.14ZM36.90 9.70C36.90 7.67 35.70 5.94 33.42 5.94C31.14 5.94 29.64 7.60 29.64 9.88C29.64 12.50 31.22 13.78 33.26 13.78C35.01 13.78 36.41 12.89 36.79 11.16L34.86 11.16C34.73 11.96 34.13 12.42 33.31 12.42C32.41 12.42 31.71 11.93 31.58 10.36L36.88 10.36C36.90 10.11 36.90 9.88 36.90 9.70ZM33.33 7.29C34.26 7.29 34.79 7.92 34.92 9.10L31.64 9.10C31.81 7.87 32.44 7.29 33.33 7.29ZM40.54 7.46L42.08 7.46L42.08 6.19L40.54 6.19L40.54 4.35L38.61 4.35L38.61 6.19L37.52 6.19L37.52 7.46L38.61 7.46L38.61 11.13C38.61 11.55 38.61 11.87 38.64 12.21C38.72 13.26 39.24 13.73 40.68 13.73C41.12 13.73 41.52 13.71 41.96 13.64L41.96 12.38C40.88 12.46 40.61 12.29 40.56 11.56C40.54 11.37 40.54 11.16 40.54 10.91Z"></path></g><defs data-v-fde0c5aa=""><!----></defs><g data-v-fde0c5aa="" id="b9aefc26-adb9-4598-9b7d-5cb1fa50b689" stroke="none" fill="#3686E2" transform="matrix(0.7354771494865417,0,0,0.7354771494865417,35.06127084414419,113.22614263863807)"><path d="M63.02 59.188c-6.502 0-11.792-5.29-11.792-11.792V37.208c0-6.501 5.29-11.791 11.792-11.791h4.76c.109-.007.221-.011.334-.011h20.102v-5.365s0-6.791-6.792-6.791H13.507a6.795 6.795 0 0 0-6.792 6.791v59.917a6.796 6.796 0 0 0 6.792 6.792h67.916c6.792 0 6.792-6.792 6.792-6.792v-20.77H63.02z"></path><path d="M91.186 30.419v-.002h-.016c-.03-.001-.052-.011-.083-.011H68.113c-.037 0-.07.009-.106.011H63.02a6.795 6.795 0 0 0-6.792 6.791v10.188a6.796 6.796 0 0 0 6.792 6.792h28.166v-.014c2.088-.072 2.1-2.186 2.1-2.186V32.604c-.001 0-.013-2.113-2.1-2.185zM65.86 46.143a3.841 3.841 0 0 1 0-7.681 3.842 3.842 0 0 1 3.84 3.84 3.842 3.842 0 0 1-3.84 3.841z"></path></g><!----></svg>